<svg xmlns="http://www.w3.org/2000/svg" xmlns:xlink="http://www.w3.org/1999/xlink" width="500" zoomAndPan="magnify" viewBox="0 0 375 374.999991" height="500" preserveAspectRatio="xMidYMid meet" version="1.0"><path fill="#000000" d="M 242.589844 10.132812 C 232.390625 11.316406 214.644531 16.59375 203.875 21.644531 C 199.015625 23.921875 189.503906 29.140625 182.738281 33.238281 C 160.65625 46.617188 136.445312 73 121.5 99.972656 C 111.183594 118.589844 108.042969 126.386719 103.09375 145.683594 C 98.613281 163.15625 98.511719 164.140625 100.980469 166.792969 C 104.007812 170.039062 121.355469 181.550781 123.222656 181.550781 C 124.859375 181.550781 124.992188 181.152344 129.53125 162.835938 C 134.949219 140.972656 141.753906 123.738281 148.746094 114.148438 C 154.773438 105.886719 169.574219 101.683594 188.28125 102.917969 C 204.894531 104.015625 215.152344 107.726562 232.464844 118.910156 C 241.980469 125.058594 244.730469 125.714844 247.21875 122.433594 C 253.621094 114.003906 258.382812 106.078125 258.554688 103.566406 C 258.746094 100.835938 257.941406 100 250.566406 95.269531 C 240.40625 88.75 228.648438 82.867188 218.429688 79.191406 C 209.941406 76.136719 193.8125 72.394531 189.132812 72.394531 C 185.128906 72.394531 185.421875 70.445312 190.101562 65.953125 C 199.386719 57.03125 220.066406 46.097656 235.066406 42.183594 C 245.746094 39.394531 264.320312 38.355469 272.523438 40.089844 C 282.804688 42.261719 287.125 45.179688 291.199219 52.699219 C 294.613281 59.007812 294.820312 59.953125 294.726562 68.757812 C 294.613281 79.285156 291.878906 89.214844 285.039062 103.957031 C 273.078125 129.714844 244.058594 162.210938 219.847656 176.957031 C 204.117188 186.535156 172.773438 199.984375 164.421875 200.734375 C 162.960938 200.867188 157.136719 201.582031 151.480469 202.324219 C 145.277344 203.136719 136.8125 203.441406 130.167969 203.085938 C 88.214844 200.847656 69.445312 181.816406 78.144531 150.34375 C 80.148438 143.089844 81.695312 139.773438 88.867188 127.335938 C 91.609375 122.578125 104.863281 89.683594 105.871094 85.132812 C 106.15625 83.84375 106.125 82.792969 105.804688 82.792969 C 104.488281 82.792969 91.695312 90.730469 85.875 95.160156 C 70.203125 107.082031 57.761719 123.957031 52.46875 140.46875 C 46.882812 157.898438 48.191406 179.304688 55.785156 194.808594 C 59.683594 202.761719 68.578125 213.3125 73.554688 215.882812 C 75.183594 216.726562 77.417969 218.226562 78.519531 219.222656 C 79.621094 220.214844 81.492188 221.332031 82.675781 221.699219 C 83.863281 222.070312 85.113281 222.808594 85.457031 223.339844 C 85.800781 223.875 86.734375 224.4375 87.535156 224.597656 C 88.335938 224.757812 91.097656 225.824219 93.671875 226.96875 C 101.011719 230.238281 106.113281 231.699219 108.246094 231.140625 C 109.324219 230.859375 110.355469 231.074219 110.535156 231.617188 C 110.714844 232.160156 117.089844 233.136719 124.695312 233.785156 C 139.464844 235.046875 157.828125 233.855469 160.730469 231.445312 C 161.539062 230.777344 162.6875 230.53125 163.28125 230.898438 C 163.878906 231.269531 164.953125 231.207031 165.667969 230.757812 C 166.382812 230.3125 167.433594 229.839844 168.007812 229.710938 C 168.578125 229.582031 171.582031 228.773438 174.683594 227.910156 C 177.78125 227.050781 180.671875 226.566406 181.105469 226.835938 C 181.542969 227.101562 182.179688 226.867188 182.523438 226.3125 C 182.867188 225.757812 183.835938 225.566406 184.675781 225.886719 C 185.515625 226.207031 186.203125 225.921875 186.203125 225.25 C 186.203125 224.503906 187.007812 224.285156 188.28125 224.691406 C 189.445312 225.0625 190.359375 224.878906 190.359375 224.273438 C 190.359375 223.679688 191.0625 223.464844 191.917969 223.792969 C 192.777344 224.125 193.480469 223.890625 193.480469 223.273438 C 193.480469 222.660156 194.121094 222.402344 194.90625 222.703125 C 195.6875 223.003906 196.976562 222.640625 197.761719 221.890625 C 198.550781 221.144531 199.664062 220.480469 200.238281 220.417969 C 202.679688 220.152344 205.957031 218.660156 205.957031 217.8125 C 205.957031 217.308594 206.304688 216.976562 206.734375 217.074219 C 208.167969 217.402344 216.351562 213.5625 216.351562 212.5625 C 216.351562 212.019531 216.820312 211.863281 217.390625 212.214844 C 217.964844 212.570312 218.429688 212.335938 218.429688 211.695312 C 218.429688 211.058594 218.898438 210.824219 219.472656 211.175781 C 220.042969 211.53125 220.511719 211.246094 220.511719 210.542969 C 220.511719 209.84375 220.792969 209.550781 221.136719 209.898438 C 222.75 211.507812 247.542969 195.480469 247.542969 192.832031 C 247.542969 192.34375 248.257812 191.945312 249.132812 191.945312 C 250.011719 191.945312 250.996094 191.242188 251.324219 190.386719 C 251.652344 189.527344 252.519531 188.824219 253.25 188.824219 C 253.984375 188.824219 255.347656 187.65625 256.285156 186.226562 C 257.21875 184.796875 258.636719 183.628906 259.429688 183.628906 C 260.222656 183.628906 262.03125 182.25 263.449219 180.566406 C 264.867188 178.882812 266.253906 177.738281 266.539062 178.019531 C 267.125 178.609375 284.628906 159.910156 291.453125 151.402344 C 298.40625 142.726562 309.652344 123.445312 314.703125 111.535156 C 321.609375 95.238281 322.789062 89.652344 322.855469 72.917969 C 322.941406 50.242188 319.175781 40.75 304.8125 27.46875 C 294.144531 17.601562 281.6875 12.019531 265.914062 10.042969 C 256.46875 8.859375 253.445312 8.871094 242.589844 10.132812 M 483.546875 83.734375 C 483.546875 84.253906 484.484375 84.429688 485.625 84.132812 C 486.769531 83.835938 487.707031 83.410156 487.707031 83.191406 C 487.707031 82.972656 486.769531 82.792969 485.625 82.792969 C 484.484375 82.792969 483.546875 83.214844 483.546875 83.734375 M 490.304688 83.308594 C 490.878906 83.503906 493.09375 83.953125 495.230469 84.3125 C 497.367188 84.667969 499.003906 85.496094 498.867188 86.152344 C 498.734375 86.808594 499.449219 87.445312 500.460938 87.5625 C 501.726562 87.710938 501.804688 87.625 500.710938 87.285156 C 499.832031 87.015625 499.398438 86.335938 499.746094 85.773438 C 500.605469 84.382812 504.988281 87.28125 509.964844 92.535156 C 514.355469 97.171875 513.914062 95.578125 509.320312 90.1875 C 505.75 86.007812 498.800781 82.820312 493.425781 82.898438 C 491.136719 82.929688 489.734375 83.113281 490.304688 83.308594 M 479.128906 84.953125 C 478.128906 85.539062 477.308594 86.492188 477.308594 87.074219 C 477.308594 87.660156 478.046875 87.398438 478.953125 86.496094 C 479.855469 85.589844 481.027344 85.117188 481.550781 85.441406 C 482.078125 85.765625 482.507812 85.539062 482.507812 84.933594 C 482.507812 83.570312 481.492188 83.578125 479.128906 84.953125 M 472.425781 90.328125 C 468.394531 94.574219 464.472656 102.199219 465.878906 103.066406 C 467.566406 104.109375 469.460938 102.441406 467.804688 101.375 C 466.628906 100.617188 466.625 100.3125 467.78125 99.566406 C 468.542969 99.074219 469.171875 98.386719 469.171875 98.03125 C 469.179688 96.316406 470.355469 93.1875 470.996094 93.1875 C 471.394531 93.1875 472.757812 91.785156 474.027344 90.070312 C 477.023438 86.015625 476.4375 86.109375 472.425781 90.328125 M 480.234375 87.660156 C 480.984375 87.960938 481.878906 87.921875 482.226562 87.578125 C 482.570312 87.234375 481.957031 86.988281 480.863281 87.03125 C 479.652344 87.082031 479.402344 87.328125 480.234375 87.660156 M 474.71875 91.097656 C 474.351562 91.683594 474.769531 91.859375 475.695312 91.503906 C 477.496094 90.8125 477.824219 90.070312 476.332031 90.070312 C 475.792969 90.070312 475.066406 90.53125 474.71875 91.097656 M 394.382812 94.414062 C 393.390625 94.804688 392.808594 95.203125 393.097656 95.308594 C 395.265625 96.097656 430.488281 96.167969 430.972656 95.382812 C 432.234375 93.339844 399.359375 92.464844 394.382812 94.414062 M 734.628906 94.132812 C 724.195312 95.378906 735.585938 96.34375 751.644531 95.574219 C 760.960938 95.128906 765.648438 94.570312 763.738281 94.136719 C 759.949219 93.28125 741.796875 93.277344 734.628906 94.132812 M 1004.164062 93.953125 C 999.730469 94.152344 996.105469 94.78125 996.105469 95.347656 C 996.105469 96.339844 1033.234375 95.910156 1034.238281 94.910156 C 1035.648438 93.5 1023.082031 93.101562 1004.164062 93.953125 M 390.660156 99.636719 C 389.605469 105.589844 389.945312 294.644531 391.015625 297.453125 L 392.003906 300.058594 L 411.746094 300.058594 C 429.515625 300.058594 431.582031 299.875 432.386719 298.238281 C 433.371094 296.238281 433.164062 97.5625 432.175781 96.570312 C 431.839844 96.234375 431.5625 141.363281 431.5625 196.851562 L 431.5625 297.746094 L 428.183594 298.355469 C 426.324219 298.691406 417.46875 298.960938 408.5 298.949219 C 392.789062 298.933594 392.207031 298.859375 392.589844 296.867188 C 392.808594 295.730469 392.925781 291.65625 392.847656 287.8125 C 392.773438 283.972656 392.628906 239.53125 392.53125 189.0625 C 392.433594 138.589844 392.109375 97.050781 391.8125 96.753906 C 391.511719 96.453125 390.992188 97.75 390.660156 99.636719 M 1034.828125 197.140625 L 1034.570312 298.5 L 1016.058594 298.730469 L 997.542969 298.960938 L 997.265625 289.382812 C 997.113281 284.113281 996.890625 279.707031 996.769531 279.585938 C 996.648438 279.464844 995.097656 280.722656 993.324219 282.378906 C 991.550781 284.035156 989.8125 285.183594 989.464844 284.929688 C 989.113281 284.671875 989.066406 284.78125 989.363281 285.171875 C 989.65625 285.5625 988.609375 287.316406 987.035156 289.070312 C 985.460938 290.824219 986.625 289.941406 989.621094 287.101562 C 992.613281 284.265625 995.136719 282.394531 995.21875 282.945312 C 995.304688 283.496094 995.429688 286.984375 995.5 290.703125 C 995.570312 294.417969 995.992188 298.042969 996.445312 298.757812 C 997.054688 299.71875 1002.136719 300.058594 1015.953125 300.058594 C 1029.945312 300.058594 1034.761719 299.730469 1035.132812 298.757812 C 1035.40625 298.042969 1035.503906 252.082031 1035.355469 196.621094 L 1035.082031 95.785156 Z M 727.753906 98.582031 C 727.066406 106.796875 727.363281 296.878906 728.066406 298.261719 C 728.925781 299.945312 730.769531 300.078125 749.492188 299.820312 L 769.976562 299.539062 L 771.015625 256.828125 L 774.65625 253.558594 C 777.128906 251.335938 777.703125 250.371094 776.445312 250.550781 C 775.429688 250.691406 774.601562 251.125 774.609375 251.503906 C 774.621094 252.449219 770.109375 257.109375 769.457031 256.820312 C 769.171875 256.695312 769.070312 266.019531 769.230469 277.546875 L 769.523438 298.5 L 749.042969 298.8125 C 729.667969 299.113281 728.640625 299.03125 730.035156 297.316406 C 730.84375 296.316406 730.96875 295.824219 730.304688 296.222656 C 729.398438 296.765625 729.175781 283.78125 729.410156 243.492188 C 729.582031 214.089844 730.078125 189.460938 730.515625 188.75 C 731.03125 187.914062 730.882812 187.730469 730.085938 188.222656 C 729.148438 188.800781 728.945312 178.257812 729.226562 143.632812 C 729.425781 118.691406 729.203125 98.046875 728.730469 97.753906 C 728.257812 97.460938 727.816406 97.835938 727.753906 98.582031 M 992.699219 105.921875 C 992.40625 110.066406 992.234375 125.035156 992.316406 139.1875 C 992.398438 153.339844 992.328125 164.914062 992.15625 164.914062 C 991.984375 164.917969 990.777344 163.671875 989.472656 162.15625 C 987.675781 160.070312 987.09375 159.8125 987.09375 161.113281 C 987.09375 162.0625 987.605469 162.835938 988.230469 162.835938 C 988.855469 162.835938 989.953125 163.773438 990.664062 164.917969 C 992.929688 168.542969 994.027344 167.1875 994.027344 160.757812 C 994.027344 157.292969 994.488281 154.519531 995.066406 154.519531 C 995.636719 154.519531 996.105469 154.023438 996.105469 153.421875 C 996.105469 152.816406 995.601562 152.632812 994.984375 153.011719 C 994.1875 153.503906 994.042969 145.714844 994.488281 126.046875 C 994.859375 109.75 994.726562 98.386719 994.171875 98.386719 C 993.65625 98.386719 992.992188 101.777344 992.699219 105.921875 M 515.394531 103.816406 C 516.199219 108.960938 514.019531 117.867188 511.789062 118.539062 C 510.492188 118.929688 510.554688 119.007812 512.046875 118.855469 C 515.625 118.496094 518.089844 107.230469 515.730469 102.023438 C 515.054688 100.535156 514.960938 101.046875 515.394531 103.816406 M 769.578125 155.820312 C 769.367188 184.835938 769.140625 209.28125 769.066406 210.136719 C 768.996094 210.996094 769.289062 211.695312 769.71875 211.695312 L 771.535156 211.695312 C 772.109375 211.695312 772.578125 211.199219 772.578125 210.59375 C 772.578125 209.992188 772.113281 209.78125 771.546875 210.128906 C 770.871094 210.546875 770.417969 192.15625 770.238281 156.914062 L 769.957031 103.0625 Z M 464.832031 107.742188 C 464.832031 108.882812 465.257812 109.820312 465.773438 109.820312 C 466.292969 109.820312 466.472656 108.882812 466.175781 107.742188 C 465.875 106.597656 465.449219 105.660156 465.230469 105.660156 C 465.011719 105.660156 464.832031 106.597656 464.832031 107.742188 M 466.199219 113.457031 C 467.011719 120.683594 472.449219 127.441406 480.679688 131.457031 C 485.394531 133.761719 487.707031 133.78125 487.707031 131.519531 C 487.707031 130.941406 486.769531 130.769531 485.625 131.132812 C 484.371094 131.53125 483.546875 131.316406 483.546875 130.59375 C 483.546875 129.9375 482.964844 129.605469 482.246094 129.863281 C 478.449219 131.21875 470.488281 123.4375 467.742188 115.679688 C 466.445312 112.019531 465.960938 111.320312 466.199219 113.457031 M 510.132812 122.847656 C 509.121094 124.394531 507.890625 125.183594 507.152344 124.761719 C 506.464844 124.363281 506.246094 124.425781 506.671875 124.890625 C 507.09375 125.359375 506.859375 126.464844 506.152344 127.347656 C 505.355469 128.339844 505.929688 128.175781 507.648438 126.925781 C 509.183594 125.808594 510.925781 123.839844 511.523438 122.554688 C 512.976562 119.4375 512.269531 119.585938 510.132812 122.847656 M 506.945312 122.285156 C 506.582031 122.871094 507 123.046875 507.925781 122.691406 C 509.726562 122 510.054688 121.253906 508.5625 121.253906 C 508.023438 121.253906 507.296875 121.71875 506.945312 122.285156 M 502.714844 128.421875 C 503.402344 129.535156 500.394531 130.867188 499.058594 130.039062 C 498.546875 129.722656 498.398438 130.171875 498.730469 131.039062 C 499.265625 132.433594 499.617188 132.425781 501.839844 130.972656 C 504.433594 129.269531 505.152344 127.492188 503.238281 127.492188 C 502.632812 127.492188 502.398438 127.910156 502.714844 128.421875 M 494.464844 131.652344 C 494.109375 132.222656 492.796875 132.746094 491.542969 132.8125 C 489.664062 132.910156 489.597656 133.015625 491.167969 133.421875 C 493.820312 134.109375 498.316406 132.839844 497.5625 131.621094 C 496.757812 130.316406 495.28125 130.328125 494.464844 131.652344 M 632.21875 147.347656 C 626.875 148.058594 627.878906 148.320312 637.417969 148.695312 C 641.136719 148.84375 645.347656 148.640625 646.777344 148.246094 C 650.382812 147.253906 638.453125 146.515625 632.21875 147.347656 M 939.703125 146.867188 C 936.09375 147.914062 938.011719 148.808594 944.382812 149.042969 C 947.957031 149.175781 952.515625 148.875 954.519531 148.371094 L 958.15625 147.457031 L 954.402344 147.351562 C 952.339844 147.292969 948.597656 147.042969 946.085938 146.792969 C 943.574219 146.542969 940.703125 146.578125 939.703125 146.867188 M 622.601562 148.972656 C 623.320312 149.261719 624.488281 149.261719 625.203125 148.972656 C 625.917969 148.683594 625.332031 148.449219 623.902344 148.449219 C 622.472656 148.449219 621.890625 148.683594 622.601562 148.972656 M 650.417969 149.328125 C 650.796875 149.941406 651.964844 150.175781 653.011719 149.84375 C 654.0625 149.511719 655.222656 149.734375 655.597656 150.335938 C 655.96875 150.941406 656.71875 151.160156 657.261719 150.828125 C 659.015625 149.742188 657.40625 148.722656 653.519531 148.460938 C 651.019531 148.292969 649.960938 148.589844 650.417969 149.328125 M 933.515625 149.53125 C 934.488281 150.5 935.042969 150.5 936.011719 149.53125 C 936.980469 148.5625 936.707031 148.285156 934.765625 148.285156 C 932.824219 148.285156 932.546875 148.5625 933.515625 149.53125 M 959.167969 149.277344 C 959.507812 149.824219 960.46875 150.007812 961.308594 149.6875 C 963.457031 148.863281 963.207031 148.285156 960.695312 148.285156 C 959.519531 148.285156 958.832031 148.730469 959.167969 149.277344 M 471.007812 150.398438 C 470.515625 150.703125 471.011719 151.511719 472.105469 152.195312 C 473.390625 153 474.320312 153.070312 474.734375 152.402344 C 475.125 151.773438 482.144531 151.402344 492.554688 151.457031 C 502.003906 151.507812 509.984375 151.304688 510.285156 151 C 511.011719 150.277344 472.167969 149.679688 471.007812 150.398438 M 556.324219 150.324219 C 552.390625 150.902344 553.214844 151.082031 561.523438 151.464844 C 573.984375 152.042969 588.101562 151.207031 584.394531 150.117188 C 581.3125 149.207031 562.980469 149.34375 556.324219 150.324219 M 617.664062 150.1875 C 617.664062 151.652344 618.835938 152.328125 620.359375 151.742188 C 621.15625 151.433594 621.554688 150.765625 621.234375 150.253906 C 620.511719 149.078125 617.664062 149.027344 617.664062 150.1875 M 834.4375 150.363281 C 828.480469 151.429688 829.921875 151.527344 853.902344 151.695312 L 875.445312 151.851562 L 873.210938 154.226562 C 871.03125 156.546875 868.554688 157.550781 869.742188 155.632812 C 870.070312 155.097656 869.925781 154.410156 869.417969 154.097656 C 868.914062 153.785156 868.503906 154.335938 868.503906 155.324219 C 868.515625 159.003906 868.195312 159.824219 867.023438 159.101562 C 866.28125 158.640625 866.105469 158.8125 866.566406 159.558594 C 866.976562 160.21875 866.734375 160.757812 866.035156 160.757812 C 865.332031 160.757812 865.035156 161.035156 865.371094 161.371094 C 865.710938 161.707031 863.191406 164.804688 859.777344 168.25 C 856.363281 171.695312 853.847656 174.792969 854.183594 175.132812 C 855.058594 176.007812 876.542969 153.390625 876.542969 151.597656 C 876.542969 151.050781 875.488281 150.324219 874.203125 149.976562 C 871.035156 149.128906 839.628906 149.433594 834.4375 150.363281 M 929.371094 150.03125 C 930.121094 150.332031 931.019531 150.296875 931.363281 149.949219 C 931.710938 149.605469 931.09375 149.359375 930 149.40625 C 928.789062 149.453125 928.542969 149.703125 929.371094 150.03125 M 964.71875 150.03125 C 965.46875 150.332031 966.367188 150.296875 966.710938 149.949219 C 967.058594 149.605469 966.445312 149.359375 965.347656 149.40625 C 964.136719 149.453125 963.890625 149.703125 964.71875 150.03125 M 614.546875 151.464844 C 614.546875 152.070312 615.011719 152.277344 615.585938 151.921875 C 616.15625 151.570312 616.625 151.074219 616.625 150.820312 C 616.625 150.570312 616.15625 150.363281 615.585938 150.363281 C 615.011719 150.363281 614.546875 150.859375 614.546875 151.464844 M 658.792969 152.140625 C 658.285156 153.457031 658.453125 153.535156 659.648438 152.546875 C 660.546875 151.796875 661.269531 151.714844 661.488281 152.335938 C 661.6875 152.898438 663.128906 153.589844 664.691406 153.867188 C 666.257812 154.148438 668.011719 154.671875 668.59375 155.03125 C 669.171875 155.390625 669.648438 155.175781 669.648438 154.554688 C 669.648438 153.9375 668.246094 153.148438 666.53125 152.804688 C 664.8125 152.460938 663.410156 151.871094 663.410156 151.492188 C 663.410156 150.027344 659.386719 150.59375 658.792969 152.140625 M 923.519531 151.460938 C 921.535156 152.253906 921.097656 154.519531 922.929688 154.519531 C 923.21875 154.519531 923.160156 154.054688 922.808594 153.480469 C 922.25 152.578125 924.355469 151.949219 926.707031 152.320312 C 927.136719 152.386719 927.488281 151.972656 927.488281 151.402344 C 927.488281 150.164062 926.726562 150.175781 923.519531 151.460938 M 968.117188 152.183594 C 968.160156 153.183594 968.410156 153.484375 968.671875 152.851562 C 969.230469 151.5 974.273438 152.230469 974.273438 153.664062 C 974.273438 154.203125 974.703125 154.378906 975.226562 154.054688 C 975.753906 153.730469 977.007812 154.285156 978.011719 155.292969 C 979.019531 156.296875 980.109375 157.050781 980.4375 156.964844 C 980.761719 156.878906 980.894531 157.285156 980.726562 157.871094 C 980.5625 158.457031 981.132812 158.664062 982 158.328125 C 982.894531 157.988281 984.023438 158.492188 984.609375 159.503906 C 985.179688 160.480469 985.660156 160.726562 985.675781 160.050781 C 985.714844 158.507812 981.003906 155.113281 975.128906 152.449219 C 969.546875 149.914062 968.011719 149.859375 968.117188 152.183594 M 609.347656 152.960938 C 607.917969 153.777344 607.214844 154.445312 607.789062 154.445312 C 608.359375 154.445312 609.996094 153.777344 611.425781 152.960938 C 612.855469 152.144531 613.558594 151.476562 612.984375 151.476562 C 612.414062 151.476562 610.777344 152.144531 609.347656 152.960938 M 469.5 225.730469 L 469.511719 299.539062 L 490.566406 299.820312 L 511.617188 300.101562 L 511.367188 226.011719 L 511.113281 151.921875 L 510.566406 298.609375 L 493.003906 298.886719 C 480.898438 299.078125 475.21875 298.804688 474.726562 298 C 474.199219 297.152344 473.601562 297.171875 472.511719 298.078125 C 471.691406 298.757812 470.695312 298.988281 470.296875 298.589844 C 469.898438 298.191406 470.261719 297.429688 471.101562 296.898438 C 472.125 296.25 472.203125 295.925781 471.339844 295.914062 C 470.324219 295.902344 469.984375 280.4375 469.765625 223.910156 L 469.488281 151.921875 Z M 586.640625 152.441406 C 586.503906 152.726562 586.332031 156.679688 586.257812 161.21875 C 586.113281 170.230469 587.175781 171.910156 590.105469 167.292969 C 591.117188 165.699219 591.320312 164.980469 590.558594 165.695312 C 588.089844 168.015625 587.609375 167.113281 587.246094 159.457031 C 587.050781 155.3125 586.777344 152.15625 586.640625 152.441406 M 616.105469 153.480469 C 615.75 154.054688 615.957031 154.519531 616.5625 154.519531 C 617.167969 154.519531 617.664062 154.054688 617.664062 153.480469 C 617.664062 152.910156 617.457031 152.441406 617.207031 152.441406 C 616.953125 152.441406 616.457031 152.910156 616.105469 153.480469 M 547.644531 164.019531 C 546.492188 180.210938 546.839844 295.796875 548.042969 298.046875 C 549.046875 299.925781 550.402344 300.058594 568.492188 300.058594 C 579.144531 300.058594 587.597656 299.792969 587.273438 299.46875 C 586.949219 299.148438 578.902344 298.890625 569.386719 298.902344 C 559.871094 298.914062 551.519531 298.707031 550.828125 298.4375 C 549.859375 298.066406 549.519531 281.390625 549.367188 226.644531 C 549.257812 187.425781 548.976562 155.144531 548.746094 154.914062 C 548.511719 154.679688 548.015625 158.777344 547.644531 164.019531 M 603.761719 155.851562 C 602.058594 157.101562 602.082031 157.199219 604.082031 157.347656 C 605.332031 157.441406 606.226562 156.882812 606.226562 156.015625 C 606.226562 154.1875 606.058594 154.175781 603.761719 155.851562 M 670.183594 156.578125 C 669.871094 157.078125 670.613281 157.804688 671.828125 158.191406 C 675.773438 159.445312 679.074219 163.035156 678.425781 165.371094 C 678.007812 166.875 678.117188 167.101562 678.789062 166.132812 C 679.535156 165.058594 680.265625 165.40625 682.054688 167.691406 C 684.609375 170.953125 684.007812 169.46875 680.460938 163.769531 C 678.007812 159.824219 671.144531 155.023438 670.183594 156.578125 M 819.78125 157.898438 L 817.800781 160.238281 L 820.140625 158.257812 C 822.339844 156.398438 822.953125 155.558594 822.121094 155.558594 C 821.921875 155.558594 820.871094 156.613281 819.78125 157.898438 M 914.449219 156.667969 C 914.070312 157.277344 913.984375 158 914.257812 158.273438 C 914.53125 158.546875 915.03125 158.046875 915.371094 157.164062 C 916.070312 155.332031 915.472656 155.011719 914.449219 156.667969 M 596.4375 161.117188 C 593.152344 163.894531 592.695312 164.6875 594.066406 165.210938 C 595 165.570312 596.085938 165.34375 596.476562 164.710938 C 596.9375 163.96875 596.714844 163.851562 595.859375 164.378906 C 594.964844 164.933594 594.691406 164.726562 595.027344 163.761719 C 595.308594 162.96875 596.207031 162.367188 597.03125 162.425781 C 597.851562 162.484375 599.042969 161.433594 599.679688 160.085938 C 600.316406 158.742188 600.761719 157.648438 600.671875 157.65625 C 600.582031 157.664062 598.675781 159.21875 596.4375 161.117188 M 911.328125 158.75 C 910.953125 159.359375 910.867188 160.082031 911.140625 160.351562 C 911.410156 160.625 911.910156 160.125 912.25 159.242188 C 912.953125 157.410156 912.355469 157.089844 911.328125 158.75 M 907.601562 161.539062 C 906.308594 163.1875 906.34375 163.222656 907.992188 161.929688 C 908.992188 161.144531 909.8125 160.328125 909.8125 160.109375 C 909.8125 159.253906 908.957031 159.804688 907.601562 161.539062 M 600.511719 161.796875 C 600.15625 162.371094 600.363281 162.835938 600.96875 162.835938 C 601.574219 162.835938 602.070312 162.371094 602.070312 161.796875 C 602.070312 161.226562 601.863281 160.757812 601.609375 160.757812 C 601.359375 160.757812 600.863281 161.226562 600.511719 161.796875 M 812.828125 165.730469 C 808.003906 170.625 807.972656 170.703125 810.652344 170.925781 C 812.964844 171.117188 813.179688 170.914062 812.082031 169.59375 C 810.902344 168.171875 811.347656 167.589844 813.382812 167.914062 C 813.8125 167.980469 814.054688 167.683594 813.921875 167.253906 C 813.511719 165.929688 817.59375 161.867188 818.667969 162.53125 C 819.230469 162.878906 819.351562 162.625 818.941406 161.957031 C 818.53125 161.296875 818.089844 160.757812 817.960938 160.757812 C 817.832031 160.757812 815.519531 162.996094 812.828125 165.730469 M 902.679688 165.261719 C 901.808594 166.3125 901.902344 166.648438 903.070312 166.648438 C 903.917969 166.648438 904.613281 166.027344 904.613281 165.261719 C 904.613281 164.5 904.4375 163.875 904.222656 163.875 C 904.003906 163.875 903.3125 164.5 902.679688 165.261719 M 304.617188 171.003906 C 302.675781 173.25 300.148438 176.238281 299.003906 177.644531 C 295.828125 181.554688 289.035156 189.59375 284.859375 194.394531 C 279.757812 200.25 279.140625 201.667969 277.761719 210.65625 C 275.050781 228.316406 268.410156 242.195312 256.960938 254.109375 C 242.664062 268.984375 220.804688 277.152344 195.21875 277.175781 C 182.109375 277.1875 181.707031 277.117188 171.308594 273.035156 C 165.488281 270.75 156.285156 266.300781 150.851562 263.148438 C 139.277344 256.429688 137.382812 255.84375 122.261719 254.273438 C 115.972656 253.621094 108.019531 252.390625 104.585938 251.539062 C 101.15625 250.691406 97.351562 249.753906 96.132812 249.460938 C 91.179688 248.265625 93.035156 251.742188 103.289062 262.886719 C 118.417969 279.324219 125.507812 284.566406 147.214844 295.363281 C 161.472656 302.457031 173.699219 305.984375 189.484375 307.5625 L 201.75 308.789062 L 194.753906 312.714844 C 170.242188 326.46875 141.34375 333.980469 123.394531 331.257812 C 109.660156 329.175781 103.167969 325.359375 98.363281 316.535156 L 95.445312 311.175781 L 96.042969 295.621094 C 96.636719 280.199219 96.621094 280.046875 94.167969 277.847656 C 88.5625 272.828125 84.460938 269.910156 83 269.910156 C 79.589844 269.910156 71.675781 294.503906 71.527344 305.554688 C 71.414062 314.113281 72.300781 320.949219 73.917969 323.96875 C 74.527344 325.113281 74.722656 326.046875 74.347656 326.046875 C 73.972656 326.046875 74.246094 326.75 74.957031 327.605469 C 75.667969 328.464844 75.972656 329.164062 75.632812 329.164062 C 75.292969 329.164062 76.355469 331.621094 78 334.625 C 81.328125 340.714844 89.957031 351.054688 93.152344 352.792969 C 100.429688 356.746094 110.675781 361.425781 113.132812 361.921875 C 125.566406 364.433594 141.445312 364.660156 152.464844 362.484375 C 160.382812 360.917969 177.984375 355.566406 184.085938 352.871094 C 214.671875 339.347656 234.964844 325.929688 256.78125 304.824219 C 291.085938 271.628906 310.101562 234.136719 311.613281 196.707031 C 312.183594 182.582031 311.023438 167.878906 309.296875 167.304688 C 308.664062 167.09375 306.558594 168.761719 304.617188 171.003906 M 898.691406 170.378906 C 897.523438 171.660156 895.699219 174.117188 894.632812 175.832031 C 893.050781 178.375 893.007812 178.703125 894.394531 177.605469 C 895.328125 176.867188 896.296875 176.636719 896.542969 177.085938 C 896.792969 177.539062 896.851562 177.328125 896.679688 176.613281 C 896.503906 175.898438 896.664062 174.527344 897.03125 173.570312 C 897.644531 171.96875 897.753906 171.976562 898.347656 173.667969 C 898.964844 175.429688 899.0625 175.429688 900.503906 173.652344 C 901.335938 172.628906 901.460938 172.125 900.785156 172.53125 C 900.113281 172.933594 899.285156 172.820312 898.945312 172.273438 C 898.609375 171.730469 899.15625 170.820312 900.164062 170.253906 C 901.171875 169.691406 901.730469 168.964844 901.402344 168.636719 C 901.078125 168.308594 899.855469 169.09375 898.691406 170.378906 M 685.828125 174.578125 C 686.21875 175.601562 686.800781 176.179688 687.121094 175.859375 C 687.441406 175.539062 687.121094 174.699219 686.410156 173.996094 C 685.382812 172.976562 685.265625 173.09375 685.828125 174.578125 M 799.753906 180.1875 C 795.957031 184.007812 794.277344 185.882812 796.023438 184.347656 C 798.285156 182.355469 799.515625 181.875 800.3125 182.667969 C 801.105469 183.464844 801.390625 183.089844 801.296875 181.367188 C 801.214844 179.863281 801.6875 179.058594 802.542969 179.234375 C 803.300781 179.394531 803.667969 179.113281 803.359375 178.613281 C 803.050781 178.113281 803.949219 177.085938 805.359375 176.332031 C 807.695312 175.085938 808.847656 173.234375 807.289062 173.234375 C 806.941406 173.234375 803.550781 176.363281 799.753906 180.1875 M 850.964844 176.183594 C 851.949219 177.769531 848.519531 181.503906 846.714844 180.808594 C 845.578125 180.371094 845.261719 180.558594 845.761719 181.367188 C 846.597656 182.726562 841.433594 188.058594 840.085938 187.226562 C 839.621094 186.9375 839.308594 187.625 839.394531 188.75 C 839.585938 191.296875 840.589844 190.59375 848.203125 182.597656 C 854 176.507812 854.632812 175.3125 852.050781 175.3125 C 851.15625 175.3125 850.671875 175.703125 850.964844 176.183594 M 686.316406 178.910156 C 685.140625 180.328125 685.210938 180.457031 686.824219 179.839844 C 688.347656 179.253906 688.589844 179.527344 688.121094 181.324219 C 687.804688 182.535156 688.0625 183.699219 688.695312 183.910156 C 689.359375 184.132812 689.847656 186.804688 689.847656 190.199219 C 689.847656 193.445312 690.214844 196.101562 690.664062 196.101562 C 691.113281 196.101562 691.480469 196.832031 691.480469 197.722656 C 691.480469 198.613281 691.011719 199.054688 690.441406 198.703125 C 689.871094 198.347656 689.402344 198.554688 689.402344 199.160156 C 689.402344 199.765625 689.921875 200.261719 690.558594 200.261719 C 691.679688 200.261719 691.183594 205.433594 689.683594 209.339844 C 689.242188 210.488281 689.449219 210.75 690.347656 210.195312 C 691.371094 209.5625 691.507812 212.945312 690.988281 226.398438 C 690.628906 235.75 690.125 244.804688 689.871094 246.519531 C 689.546875 248.683594 689.660156 249.050781 690.234375 247.714844 C 690.691406 246.65625 691.039062 257.785156 691.011719 272.449219 L 690.960938 299.105469 L 685.242188 298.945312 C 682.097656 298.859375 676.320312 298.367188 672.40625 297.851562 C 667.378906 297.191406 664.054688 297.285156 661.101562 298.171875 C 657.359375 299.289062 656.769531 299.21875 655.488281 297.460938 C 654.101562 295.566406 654.054688 295.566406 654.054688 297.433594 C 654.054688 299.292969 652.628906 298.804688 652.363281 296.851562 C 652.292969 296.328125 652.175781 275.707031 652.105469 251.023438 C 652.03125 226.34375 651.71875 206.40625 651.40625 206.722656 C 650.414062 207.710938 650.707031 298.167969 651.703125 299.164062 C 652.21875 299.679688 661.734375 299.976562 672.84375 299.820312 L 693.042969 299.539062 L 692.925781 248.597656 C 692.828125 204.882812 692.5625 196.40625 691.027344 188.847656 C 688.832031 178 688.191406 176.652344 686.316406 178.910156 M 890.566406 182.613281 C 889.207031 185.242188 889.113281 186.195312 890.121094 187.125 C 891.109375 188.035156 891.257812 187.886719 890.765625 186.488281 C 890.398438 185.445312 890.628906 184.667969 891.304688 184.667969 C 891.953125 184.667969 892.175781 184.359375 891.800781 183.984375 C 891.421875 183.609375 891.648438 182.660156 892.292969 181.878906 C 892.945312 181.097656 893.207031 180.195312 892.882812 179.867188 C 892.558594 179.542969 891.515625 180.777344 890.566406 182.613281 M 951.65625 181.808594 C 951.929688 182.632812 954.648438 183.222656 959.109375 183.417969 C 962.996094 183.589844 965.882812 183.316406 965.570312 182.808594 C 965.257812 182.304688 962.410156 182.105469 959.238281 182.367188 C 955.386719 182.6875 953.476562 182.460938 953.476562 181.679688 C 953.476562 181.035156 952.972656 180.507812 952.351562 180.507812 C 951.734375 180.507812 951.417969 181.09375 951.65625 181.808594 M 607.550781 185.449219 C 607.71875 187.894531 608.539062 188.160156 611.871094 186.855469 C 613.664062 186.152344 613.691406 186 612.128906 185.402344 C 611.117188 185.011719 610.386719 185.238281 610.386719 185.9375 C 610.386719 186.601562 609.710938 186.238281 608.886719 185.125 C 607.429688 183.164062 607.394531 183.175781 607.550781 185.449219 M 614.546875 184.8125 C 614.546875 185.304688 616.496094 185.707031 618.878906 185.707031 C 621.261719 185.707031 623 185.496094 622.738281 185.238281 C 621.8125 184.308594 614.546875 183.933594 614.546875 184.8125 M 628.582031 184.667969 C 626.578125 185.53125 626.585938 185.5625 628.78125 185.632812 C 630.03125 185.675781 631.347656 185.238281 631.699219 184.667969 C 632.460938 183.4375 631.441406 183.4375 628.582031 184.667969 M 633.921875 185.1875 C 633.59375 186.046875 633.777344 186.746094 634.332031 186.746094 C 634.886719 186.746094 635.339844 186.046875 635.339844 185.1875 C 635.339844 184.328125 635.15625 183.628906 634.929688 183.628906 C 634.707031 183.628906 634.253906 184.328125 633.921875 185.1875 M 636.378906 184.667969 C 636.378906 185.238281 636.820312 185.707031 637.355469 185.707031 C 637.894531 185.707031 638.625 185.238281 638.976562 184.667969 C 639.332031 184.097656 638.890625 183.628906 638 183.628906 C 637.109375 183.628906 636.378906 184.097656 636.378906 184.667969 M 939.398438 184.738281 C 939.023438 185.347656 938.9375 186.070312 939.210938 186.339844 C 939.480469 186.613281 939.980469 186.113281 940.320312 185.230469 C 941.023438 183.402344 940.425781 183.078125 939.398438 184.738281 M 945.679688 184.667969 C 944.921875 185.898438 945.9375 185.898438 948.800781 184.667969 C 950.804688 183.804688 950.796875 183.773438 948.601562 183.699219 C 947.347656 183.660156 946.035156 184.097656 945.679688 184.667969 M 968.878906 184.339844 C 969.628906 184.640625 970.527344 184.601562 970.871094 184.257812 C 971.214844 183.910156 970.601562 183.664062 969.507812 183.710938 C 968.296875 183.761719 968.050781 184.007812 968.878906 184.339844 M 975.789062 184.738281 C 975.410156 185.347656 975.324219 186.070312 975.597656 186.339844 C 975.871094 186.613281 976.371094 186.113281 976.710938 185.230469 C 977.414062 183.402344 976.8125 183.078125 975.789062 184.738281 M 602.695312 188.996094 C 602.960938 189.425781 603.863281 189.511719 604.703125 189.1875 C 606.820312 188.375 606.609375 187.886719 604.21875 188.066406 C 603.117188 188.148438 602.429688 188.566406 602.695312 188.996094 M 786.585938 194.050781 C 781.019531 199.675781 780.679688 200.261719 783.003906 200.246094 C 784.703125 200.234375 785.125 199.945312 784.253906 199.394531 C 783.300781 198.789062 784.082031 197.527344 787.0625 194.851562 C 789.332031 192.816406 791.519531 191.445312 791.925781 191.804688 C 792.332031 192.167969 792.351562 191.917969 791.96875 191.253906 C 791.589844 190.589844 791.863281 189.832031 792.582031 189.578125 C 793.300781 189.320312 793.628906 188.824219 793.308594 188.476562 C 792.992188 188.125 789.964844 190.636719 786.585938 194.050781 M 886.929688 190.929688 C 885.890625 193.429688 885.875 194.414062 886.851562 195.382812 C 887.824219 196.347656 887.957031 196.234375 887.441406 194.882812 C 887.078125 193.929688 887.320312 192.136719 887.984375 190.898438 C 888.644531 189.660156 888.976562 188.4375 888.722656 188.183594 C 888.46875 187.929688 887.660156 189.164062 886.929688 190.929688 M 937.882812 188.886719 C 937.882812 189.492188 938.351562 189.699219 938.921875 189.347656 C 939.496094 188.992188 939.960938 188.496094 939.960938 188.246094 C 939.960938 187.992188 939.496094 187.785156 938.921875 187.785156 C 938.351562 187.785156 937.882812 188.28125 937.882812 188.886719 M 640.539062 189.21875 C 640.539062 189.433594 641.355469 190.253906 642.355469 191.039062 C 644.007812 192.332031 644.042969 192.292969 642.75 190.644531 C 641.390625 188.914062 640.539062 188.363281 640.539062 189.21875 M 598.257812 191.378906 C 598.257812 192.210938 598.648438 192.652344 599.125 192.355469 C 599.601562 192.0625 599.992188 191.382812 599.992188 190.84375 C 599.992188 190.304688 599.601562 189.867188 599.125 189.867188 C 598.648438 189.867188 598.257812 190.546875 598.257812 191.378906 M 835.519531 194.09375 C 835.777344 194.511719 834.335938 196.304688 832.316406 198.078125 C 830.296875 199.847656 829.035156 201.300781 829.511719 201.300781 C 829.988281 201.300781 832.128906 199.507812 834.265625 197.316406 C 836.707031 194.820312 837.578125 193.332031 836.601562 193.332031 C 835.746094 193.332031 835.257812 193.671875 835.519531 194.09375 M 930.605469 196.101562 C 929.667969 196.707031 929.539062 197.117188 930.285156 197.125 C 930.964844 197.136719 931.8125 196.675781 932.164062 196.101562 C 932.960938 194.8125 932.601562 194.8125 930.605469 196.101562 M 592.308594 197.332031 C 592.609375 197.816406 593.292969 197.945312 593.824219 197.617188 C 595.183594 196.777344 595.03125 196.449219 593.277344 196.449219 C 592.445312 196.449219 592.011719 196.847656 592.308594 197.332031 M 647.898438 198.183594 C 649.414062 201.363281 649.894531 201.953125 649.894531 200.632812 C 649.894531 200.074219 649.167969 198.710938 648.277344 197.601562 C 646.753906 195.699219 646.730469 195.730469 647.898438 198.183594 M 884.234375 198.75 C 883.871094 200.207031 883.859375 201.6875 884.214844 202.042969 C 884.570312 202.394531 884.859375 201.644531 884.859375 200.375 C 884.859375 199.101562 885.324219 198.34375 885.886719 198.695312 C 886.476562 199.058594 886.652344 198.640625 886.296875 197.714844 C 885.433594 195.472656 885.003906 195.6875 884.234375 198.75 M 927.957031 201.398438 C 927.042969 203.164062 926.476562 204.796875 926.703125 205.023438 C 926.929688 205.246094 927.890625 203.800781 928.84375 201.808594 C 930.980469 197.324219 930.242188 196.980469 927.957031 201.398438 M 590.585938 201.390625 C 589.945312 202.582031 589.621094 203.753906 589.859375 203.992188 C 590.101562 204.230469 590.828125 203.257812 591.480469 201.824219 C 592.914062 198.679688 592.214844 198.34375 590.585938 201.390625 M 649.894531 203.898438 C 649.894531 204.757812 650.363281 205.457031 650.933594 205.457031 C 651.507812 205.457031 651.972656 204.757812 651.972656 203.898438 C 651.972656 203.042969 651.507812 202.339844 650.933594 202.339844 C 650.363281 202.339844 649.894531 203.042969 649.894531 203.898438 M 882.945312 205.457031 C 882.945312 206.886719 883.179688 207.472656 883.46875 206.757812 C 883.757812 206.042969 883.757812 204.875 883.46875 204.160156 C 883.179688 203.445312 882.945312 204.03125 882.945312 205.457031 M 588.207031 207.796875 C 587.453125 210.886719 588.195312 297.96875 588.984375 298.753906 C 589.320312 299.089844 589.59375 278.234375 589.59375 252.414062 C 589.59375 226.585938 589.410156 205.457031 589.1875 205.457031 C 588.960938 205.457031 588.523438 206.511719 588.207031 207.796875 M 773.785156 206.8125 C 772.957031 207.8125 773.183594 208.179688 774.707031 208.296875 C 776.785156 208.453125 777.464844 207.070312 775.8125 206.050781 C 775.304688 205.738281 774.394531 206.082031 773.785156 206.8125 M 924.382812 206.175781 C 924.390625 206.640625 924.851562 207.71875 925.40625 208.578125 C 926.273438 209.921875 926.417969 209.894531 926.429688 208.378906 C 926.441406 207.414062 925.980469 206.332031 925.40625 205.980469 C 924.835938 205.625 924.375 205.714844 924.382812 206.175781 M 993.785156 210.398438 C 994.203125 213.113281 994.527344 221.066406 994.507812 228.070312 C 994.488281 235.074219 994.722656 240.804688 995.03125 240.804688 C 995.738281 240.804688 996.003906 236.511719 996.027344 224.691406 C 996.054688 212.570312 995.757812 208.578125 994.835938 208.578125 C 994.425781 208.578125 994.359375 207.875 994.6875 207.019531 C 995.015625 206.160156 994.777344 205.457031 994.15625 205.457031 C 993.394531 205.457031 993.273438 207.066406 993.785156 210.398438 M 818.320312 209.679688 C 818.320312 210.285156 818.789062 210.492188 819.359375 210.136719 C 819.933594 209.785156 820.402344 209.289062 820.402344 209.035156 C 820.402344 208.785156 819.933594 208.578125 819.359375 208.578125 C 818.789062 208.578125 818.320312 209.074219 818.320312 209.679688 M 818.839844 212.25 C 817.125 213.652344 816.191406 214.800781 816.761719 214.792969 C 818.089844 214.78125 819.507812 213.730469 821.308594 211.4375 C 823.234375 208.976562 822.558594 209.199219 818.839844 212.25 M 881.742188 213.082031 C 881.742188 215.179688 882.148438 216.894531 882.644531 216.894531 C 883.140625 216.894531 883.375 215.414062 883.164062 213.601562 C 882.617188 208.902344 881.742188 208.582031 881.742188 213.082031 M 923.347656 211.203125 C 924.074219 212.074219 924.878906 212.570312 925.140625 212.3125 C 925.859375 211.589844 924.394531 209.617188 923.140625 209.617188 C 922.449219 209.617188 922.527344 210.214844 923.347656 211.203125 M 923.640625 218.972656 C 923.640625 222.117188 923.835938 223.40625 924.074219 221.832031 C 924.3125 220.257812 924.3125 217.6875 924.074219 216.113281 C 923.835938 214.542969 923.640625 215.828125 923.640625 218.972656 M 818.320312 215.742188 C 818.320312 216.253906 819.015625 216.9375 819.863281 217.261719 C 820.761719 217.609375 821.140625 218.539062 820.773438 219.496094 C 820.386719 220.507812 820.644531 221.019531 821.441406 220.835938 C 822.15625 220.667969 822.976562 221.183594 823.265625 221.976562 C 823.617188 222.945312 823.351562 223.148438 822.453125 222.597656 C 821.574219 222.050781 821.375 222.183594 821.871094 222.988281 C 822.285156 223.65625 823.015625 223.960938 823.5 223.664062 C 823.980469 223.367188 825.828125 225.101562 827.609375 227.523438 C 830.527344 231.492188 830.664062 231.996094 829 232.65625 C 827.648438 233.195312 827.898438 233.351562 829.945312 233.238281 L 832.730469 233.085938 L 829.582031 228.886719 C 827.847656 226.578125 824.957031 222.476562 823.15625 219.773438 C 820.054688 215.117188 818.320312 213.671875 818.320312 215.742188 M 923.222656 231.449219 C 922.621094 236.125 922.8125 237.507812 923.914062 236.40625 C 924.234375 236.085938 924.347656 233.785156 924.160156 231.296875 L 923.824219 226.769531 Z M 882.433594 234.21875 C 881.328125 235.328125 881.65625 240.757812 883.304688 248.535156 C 884.972656 256.414062 886.59375 259.300781 886.59375 254.398438 C 886.59375 252.6875 886.253906 251.5 885.84375 251.753906 C 884.792969 252.402344 882.433594 239.265625 883.035156 236.117188 C 883.566406 233.339844 883.507812 233.148438 882.433594 234.21875 M 832.410156 235.515625 C 832.332031 235.648438 832.277344 235.789062 832.253906 235.941406 C 832.230469 236.09375 832.234375 236.242188 832.273438 236.390625 C 832.308594 236.539062 832.367188 236.675781 832.457031 236.800781 C 832.546875 236.925781 832.65625 237.027344 832.789062 237.109375 C 833.328125 237.445312 834.046875 237.273438 834.382812 236.734375 C 834.460938 236.601562 834.511719 236.460938 834.539062 236.3125 C 834.5625 236.160156 834.558594 236.007812 834.523438 235.859375 C 834.484375 235.710938 834.421875 235.574219 834.335938 235.449219 C 834.246094 235.324219 834.136719 235.222656 834.003906 235.140625 C 833.875 235.0625 833.734375 235.007812 833.582031 234.984375 C 833.429688 234.960938 833.28125 234.964844 833.128906 235 C 832.980469 235.035156 832.84375 235.097656 832.71875 235.1875 C 832.59375 235.277344 832.492188 235.386719 832.410156 235.515625 M 924.167969 238.226562 C 923.773438 238.625 923.84375 239.71875 924.320312 240.65625 C 924.800781 241.59375 926.023438 244.375 927.039062 246.832031 C 928.054688 249.289062 929.3125 251.5625 929.832031 251.882812 C 930.351562 252.203125 929.984375 250.933594 929.015625 249.0625 C 928.046875 247.1875 926.722656 243.824219 926.070312 241.582031 C 925.417969 239.339844 924.5625 237.832031 924.167969 238.226562 M 782.871094 243.921875 C 779.984375 246.78125 778.023438 249.121094 778.519531 249.121094 C 779.015625 249.121094 781.472656 247.027344 783.984375 244.472656 C 787.53125 240.859375 788.859375 240.082031 789.941406 240.980469 C 791.035156 241.886719 791.195312 241.765625 790.683594 240.429688 C 789.675781 237.804688 788.546875 238.308594 782.871094 243.921875 M 791.289062 243.277344 C 791.289062 243.492188 792.109375 244.308594 793.109375 245.09375 C 794.757812 246.386719 794.792969 246.351562 793.503906 244.703125 C 792.144531 242.96875 791.289062 242.421875 791.289062 243.277344 M 840.15625 245.355469 C 840.15625 245.570312 840.972656 246.390625 841.972656 247.175781 C 843.621094 248.464844 843.660156 248.429688 842.367188 246.78125 C 841.007812 245.050781 840.15625 244.5 840.15625 245.355469 M 795.316406 248.800781 C 795.964844 250.054688 796.996094 251.390625 797.601562 251.765625 C 799.671875 253.042969 799.203125 251.722656 796.664062 249.121094 C 794.371094 246.765625 794.242188 246.734375 795.316406 248.800781 M 842.234375 249.527344 C 842.234375 249.753906 842.960938 250.214844 843.847656 250.554688 C 844.773438 250.910156 845.191406 250.738281 844.824219 250.148438 C 844.214844 249.160156 842.234375 248.6875 842.234375 249.527344 M 985.777344 255.664062 L 981.164062 261.074219 L 985.320312 257.15625 C 987.609375 255 989.699219 253.457031 989.96875 253.726562 C 990.238281 253.996094 990.460938 253.304688 990.460938 252.1875 C 990.460938 251.070312 990.445312 250.179688 990.425781 250.207031 Z M 845.351562 252.832031 C 845.351562 253.160156 846.058594 254.132812 846.921875 254.996094 C 847.785156 255.859375 848.226562 256.996094 847.898438 257.519531 C 847.574219 258.046875 848.070312 258.476562 849 258.476562 C 850.445312 258.476562 850.367188 258.019531 848.472656 255.355469 C 846.339844 252.363281 845.351562 251.5625 845.351562 252.832031 M 931.039062 254.964844 C 931.195312 256.039062 931.746094 256.925781 932.265625 256.933594 C 934 256.960938 935.84375 258.609375 935.238281 259.585938 C 934.910156 260.121094 935.722656 260.5625 937.042969 260.570312 C 938.777344 260.582031 939.054688 260.832031 938.039062 261.476562 C 937.019531 262.121094 937.449219 262.519531 939.597656 262.921875 C 941.226562 263.230469 943.730469 263.777344 945.160156 264.140625 C 946.589844 264.503906 945.4375 263.605469 942.59375 262.144531 C 939.753906 260.679688 935.925781 258.027344 934.089844 256.246094 C 931.429688 253.671875 930.808594 253.410156 931.039062 254.964844 M 886.941406 259.457031 C 886.941406 260.09375 888.296875 263.304688 889.957031 266.59375 C 892.242188 271.117188 893.566406 272.617188 895.402344 272.753906 C 897.210938 272.890625 897.449219 272.703125 896.332031 272.011719 C 895.507812 271.503906 894.519531 271.285156 894.128906 271.527344 C 893.46875 271.933594 890.753906 266.535156 890.4375 264.195312 C 890.355469 263.578125 890.222656 262.972656 890.046875 262.375 C 889.910156 261.945312 889.742188 261.050781 889.667969 260.382812 C 889.5 258.808594 886.941406 257.941406 886.941406 259.457031 M 803.976562 262.164062 C 804.617188 263.566406 805.882812 264.675781 806.792969 264.632812 C 807.867188 264.578125 807.988281 264.367188 807.144531 264.023438 C 806.429688 263.734375 805.84375 262.886719 805.84375 262.140625 C 805.84375 261.390625 805.164062 260.515625 804.332031 260.195312 C 803.078125 259.714844 803.015625 260.054688 803.976562 262.164062 M 850.695312 261.441406 C 851.359375 262.5 852.734375 263.886719 853.757812 264.527344 C 855.527344 265.632812 855.53125 265.539062 853.863281 262.605469 C 852.898438 260.914062 851.523438 259.527344 850.804688 259.523438 C 849.789062 259.515625 849.765625 259.949219 850.695312 261.441406 M 975.3125 262.980469 C 971.367188 264.878906 968.878906 265.222656 959.457031 265.164062 C 953.308594 265.121094 948.28125 265.398438 948.28125 265.777344 C 948.28125 266.152344 953.898438 266.496094 960.765625 266.542969 C 968.109375 266.589844 973.007812 266.230469 972.660156 265.667969 C 972.144531 264.832031 974.34375 264.230469 976.613281 264.589844 C 977.039062 264.65625 977.398438 264.128906 977.40625 263.414062 C 977.417969 262.441406 977.644531 262.464844 978.304688 263.503906 C 978.972656 264.554688 979.316406 264.371094 979.75 262.722656 C 980.058594 261.53125 980.242188 260.59375 980.152344 260.640625 C 980.0625 260.691406 977.886719 261.742188 975.3125 262.980469 M 807.648438 266.921875 C 808.351562 267.632812 809.191406 267.953125 809.511719 267.632812 C 809.832031 267.3125 809.253906 266.730469 808.230469 266.339844 C 806.746094 265.777344 806.628906 265.894531 807.648438 266.921875 M 856.789062 268.351562 C 857.5 269.210938 857.699219 269.910156 857.230469 269.910156 C 856.765625 269.910156 857.886719 271.460938 859.722656 273.359375 C 861.558594 275.253906 862.710938 277.242188 862.28125 277.777344 C 861.851562 278.3125 862.136719 278.199219 862.90625 277.53125 C 864.058594 276.539062 863.589844 275.457031 860.332031 271.554688 C 858.140625 268.9375 856.15625 266.792969 855.921875 266.792969 C 855.6875 266.792969 856.078125 267.492188 856.789062 268.351562 M 811.257812 269.757812 C 810.214844 270.417969 810.40625 271.167969 812.117188 273.117188 C 813.328125 274.5 813.941406 274.925781 813.476562 274.070312 C 812.308594 271.90625 812.347656 270.5625 813.609375 269.667969 C 815.117188 268.59375 812.960938 268.675781 811.257812 269.757812 M 894.980469 275.238281 C 895.683594 275.949219 896.523438 276.269531 896.84375 275.949219 C 897.164062 275.628906 896.585938 275.046875 895.5625 274.65625 C 894.078125 274.09375 893.960938 274.210938 894.980469 275.238281 M 814.726562 276.078125 C 813.785156 277.597656 816.285156 278.601562 817.632812 277.242188 C 818.554688 276.3125 818.367188 276.203125 816.851562 276.785156 C 815.460938 277.3125 815.085938 277.171875 815.613281 276.324219 C 816.027344 275.65625 816.128906 275.109375 815.84375 275.109375 C 815.558594 275.109375 815.054688 275.542969 814.726562 276.078125 M 899.296875 281.175781 C 902.976562 285.800781 907.734375 290.328125 907.734375 289.210938 C 907.734375 288.761719 908.652344 289.496094 909.777344 290.847656 C 910.902344 292.195312 911.835938 292.789062 911.855469 292.164062 C 911.894531 290.894531 908.558594 287.582031 907.246094 287.582031 C 905.933594 287.582031 900.3125 281.375 900.84375 280.515625 C 901.105469 280.097656 900.179688 279.214844 898.789062 278.5625 C 896.332031 277.402344 896.347656 277.472656 899.296875 281.175781 M 866.527344 281.78125 C 867.984375 284.019531 868.886719 286.3125 868.539062 286.878906 C 868.183594 287.453125 868.433594 287.578125 869.105469 287.164062 C 869.765625 286.753906 870.304688 286.9375 870.304688 287.566406 C 870.304688 288.195312 871.222656 289.695312 872.347656 290.902344 C 873.472656 292.109375 874.101562 293.566406 873.746094 294.140625 C 873.359375 294.765625 873.632812 294.851562 874.4375 294.355469 C 875.328125 293.804688 875.609375 294.011719 875.285156 294.976562 C 875.019531 295.769531 875.542969 297 876.449219 297.714844 C 877.78125 298.753906 873.578125 298.984375 854.914062 298.894531 C 842.160156 298.832031 831.4375 299.070312 831.089844 299.421875 C 830.738281 299.773438 841.238281 300.058594 854.425781 300.058594 C 880.707031 300.058594 881.976562 299.738281 877 294.371094 C 875.605469 292.867188 874.464844 291.191406 874.464844 290.648438 C 874.464844 290.378906 874.371094 290.148438 874.179688 289.957031 C 873.992188 289.761719 873.761719 289.664062 873.492188 289.664062 C 872.960938 289.664062 872.261719 288.84375 871.945312 287.84375 C 871.628906 286.84375 869.683594 284.152344 867.625 281.867188 L 863.882812 277.707031 Z M 817.003906 280.433594 C 817.710938 281.148438 818.550781 281.464844 818.867188 281.144531 C 819.1875 280.824219 818.613281 280.246094 817.585938 279.851562 C 816.105469 279.289062 815.984375 279.410156 817.003906 280.433594 M 819.332031 284.40625 C 820.632812 286.84375 822.480469 288.132812 822.480469 286.605469 C 822.480469 286 821.984375 285.503906 821.378906 285.503906 C 820.773438 285.503906 820.570312 285.03125 820.929688 284.449219 C 821.289062 283.867188 822.136719 283.707031 822.8125 284.09375 C 823.488281 284.480469 823.675781 284.398438 823.234375 283.910156 C 822.789062 283.425781 821.484375 282.882812 820.339844 282.707031 C 818.5625 282.4375 818.414062 282.691406 819.332031 284.40625 M 823.242188 289.792969 C 823.949219 290.503906 824.785156 290.820312 825.105469 290.5 C 825.425781 290.179688 824.847656 289.601562 823.824219 289.210938 C 822.34375 288.644531 822.222656 288.765625 823.242188 289.792969 M 913.496094 292.710938 C 913.164062 293.242188 913.292969 293.921875 913.78125 294.222656 C 914.265625 294.523438 914.664062 294.085938 914.664062 293.253906 C 914.664062 291.503906 914.335938 291.351562 913.496094 292.710938 M 980.25 292.949219 C 978.675781 293.523438 977.390625 294.390625 977.390625 294.875 C 977.390625 295.363281 976.417969 296.066406 975.234375 296.445312 C 974.046875 296.820312 973.324219 297.375 973.625 297.679688 C 974.1875 298.242188 983.628906 293.085938 983.628906 292.21875 C 983.628906 291.957031 983.511719 291.777344 983.367188 291.824219 C 983.226562 291.867188 981.824219 292.375 980.25 292.949219 M 916.671875 294.699219 C 916.3125 295.28125 916.523438 296.070312 917.140625 296.453125 C 918.742188 297.4375 919.773438 296.085938 918.4375 294.753906 C 917.691406 294.003906 917.109375 293.988281 916.671875 294.699219 M 491.671875 296.609375 C 492.417969 296.910156 493.316406 296.871094 493.660156 296.527344 C 494.007812 296.183594 493.394531 295.9375 492.296875 295.980469 C 491.085938 296.03125 490.839844 296.277344 491.671875 296.609375 M 561.328125 297.648438 C 562.078125 297.949219 562.976562 297.914062 563.320312 297.566406 C 563.664062 297.222656 563.050781 296.976562 561.957031 297.019531 C 560.746094 297.070312 560.5 297.316406 561.328125 297.648438 M 923.328125 299.019531 C 925.363281 300.335938 926.738281 300.335938 925.925781 299.019531 C 925.574219 298.445312 924.492188 297.984375 923.527344 297.996094 C 922.011719 298.007812 921.984375 298.152344 923.328125 299.019531 M 968.035156 299.019531 C 968.035156 299.589844 968.5 300.058594 969.074219 300.058594 C 969.644531 300.058594 970.113281 299.589844 970.113281 299.019531 C 970.113281 298.445312 969.644531 297.980469 969.074219 297.980469 C 968.5 297.980469 968.035156 298.445312 968.035156 299.019531 M 928.332031 300.769531 C 929.082031 301.070312 929.980469 301.03125 930.324219 300.6875 C 930.667969 300.339844 930.054688 300.09375 928.960938 300.140625 C 927.75 300.191406 927.503906 300.4375 928.332031 300.769531 M 953.476562 301.617188 C 952.375 302.945312 952.628906 303.160156 955.171875 303.054688 C 956.949219 302.984375 957.417969 302.742188 956.324219 302.457031 C 955.316406 302.195312 954.761719 301.546875 955.085938 301.019531 C 956.035156 299.484375 954.898438 299.910156 953.476562 301.617188 M 959.71875 301.359375 C 959.714844 302.453125 964.085938 302.300781 965.921875 301.140625 C 967 300.457031 966.3125 300.234375 963.585938 300.375 C 961.464844 300.488281 959.722656 300.929688 959.71875 301.359375 M 932.492188 301.808594 C 933.238281 302.109375 934.136719 302.070312 934.484375 301.726562 C 934.828125 301.378906 934.214844 301.136719 933.117188 301.179688 C 931.90625 301.230469 931.660156 301.476562 932.492188 301.808594 M 936.324219 302.136719 C 935.949219 302.746094 937.027344 303.175781 938.921875 303.175781 C 940.820312 303.175781 941.898438 302.746094 941.523438 302.136719 C 941.167969 301.566406 940 301.097656 938.921875 301.097656 C 937.847656 301.097656 936.675781 301.566406 936.324219 302.136719 M 949.125 303.886719 C 949.875 304.1875 950.773438 304.148438 951.117188 303.804688 C 951.460938 303.460938 950.847656 303.214844 949.753906 303.257812 C 948.542969 303.308594 948.296875 303.554688 949.125 303.886719 " fill-opacity="1" fill-rule="evenodd"/></svg>